<svg width="28" height="21" viewBox="0 0 28 21" fill="none" xmlns="http://www.w3.org/2000/svg">
    <path d="M26.5729 2.21048C25.5885 0.963308 23.7709 0.45459 20.2998 0.45459H7.6993C4.14865 0.45459 2.30026 0.996131 1.3195 2.3239C0.363281 3.6185 0.363281 5.52599 0.363281 8.16599V13.1978C0.363281 18.3124 1.49783 20.9091 7.6993 20.9091H20.2998C23.31 20.9091 24.978 20.4604 26.0572 19.3596C27.1639 18.231 27.636 16.3883 27.636 13.1978V8.16599C27.636 5.38189 27.5621 3.46315 26.5729 2.21048ZM17.8725 11.3766L12.1506 14.5635C12.0227 14.6348 11.8828 14.6701 11.7431 14.6701C11.5849 14.6701 11.4271 14.6247 11.2873 14.5345C11.0241 14.3645 10.8634 14.0605 10.8634 13.7325V7.37918C10.8634 7.05178 11.0237 6.74802 11.2864 6.57793C11.5491 6.40787 11.876 6.39624 12.1486 6.54718L17.8705 9.71354C18.1616 9.87459 18.3443 10.1949 18.3447 10.5443C18.3451 10.894 18.1632 11.2148 17.8725 11.3766Z" fill="#383838"/>
</svg>