<svg width="30" height="31" viewBox="0 0 30 31" fill="none" xmlns="http://www.w3.org/2000/svg">
<g clip-path="url(#clip0_138_695)">
<path d="M15 30.5C23.2843 30.5 30 23.7843 30 15.5C30 7.21573 23.2843 0.5 15 0.5C6.71573 0.5 0 7.21573 0 15.5C0 23.7843 6.71573 30.5 15 30.5Z" fill="#32BA7C"/>
<path d="M11.166 22.2665L18.879 29.9794C25.267 28.276 29.9988 22.4558 29.9988 15.4999C29.9988 15.358 29.9988 15.216 29.9988 15.0741L23.942 9.49048L11.166 22.2665Z" fill="#0AA06E"/>
<path d="M15.3782 18.8595C16.0406 19.522 16.0406 20.6576 15.3782 21.3201L14.0059 22.6923C13.3435 23.3548 12.2078 23.3548 11.5454 22.6923L5.53591 16.6356C4.87345 15.9731 4.87345 14.8375 5.53591 14.175L6.90815 12.8028C7.57061 12.1403 8.70626 12.1403 9.36872 12.8028L15.3782 18.8595Z" fill="white"/>
<path d="M20.6296 8.40212C21.2921 7.73966 22.4277 7.73966 23.0902 8.40212L24.4624 9.77436C25.1249 10.4368 25.1249 11.5725 24.4624 12.2349L14.0523 22.5977C13.3898 23.2602 12.2542 23.2602 11.5917 22.5977L10.2195 21.2255C9.55704 20.563 9.55704 19.4274 10.2195 18.7649L20.6296 8.40212Z" fill="white"/>
</g>
<defs>
<clipPath id="clip0_138_695">
<rect width="30" height="30" fill="white" transform="translate(0 0.5)"/>
</clipPath>
</defs>
</svg>
