<svg width="30" height="30" viewBox="0 0 30 30" fill="none" xmlns="http://www.w3.org/2000/svg">
    <path d="M21.6475 0.09625C23.17 0.16625 24.2225 0.39 25.195 0.7675C26.1171 1.11226 26.9519 1.65599 27.64 2.36C28.344 3.04811 28.8877 3.8829 29.2325 4.805C29.61 5.77875 29.8337 6.83 29.9038 8.3525C29.99 10.24 30 10.905 30 15C30 19.095 29.99 19.76 29.9038 21.6475C29.8337 23.17 29.61 24.2225 29.2325 25.1962C28.8876 26.1179 28.3439 26.9523 27.64 27.64C26.9519 28.344 26.1171 28.8878 25.195 29.2325C24.2213 29.61 23.17 29.8337 21.6475 29.9038C19.76 29.99 19.0963 30 15 30C10.9038 30 10.2388 29.99 8.3525 29.9038C6.83 29.8337 5.7775 29.61 4.80375 29.2325C3.88208 28.8876 3.04772 28.3439 2.36 27.64C1.65599 26.9519 1.11226 26.1171 0.7675 25.195C0.39 24.2213 0.16625 23.17 0.09625 21.6475C0.01 19.7625 0 19.0975 0 15C0 10.9038 0.01 10.2375 0.09625 8.3525C0.16625 6.83 0.39 5.7775 0.7675 4.805C1.11226 3.8829 1.65599 3.04811 2.36 2.36C3.04775 1.65614 3.8821 1.11243 4.80375 0.7675C5.77875 0.39 6.83 0.16625 8.3525 0.09625C10.2375 0.01 10.9025 0 15 0C19.0963 0 19.7625 0.01 21.6475 0.09625ZM15 3.33375C10.95 3.33375 10.33 3.3425 8.50375 3.42625C7.345 3.47875 6.65 3.62625 6.01125 3.875C5.4675 4.0875 5.12125 4.3125 4.71625 4.71625C4.31125 5.12125 4.08625 5.4675 3.875 6.01125C3.6275 6.64875 3.47875 7.345 3.42625 8.50375C3.3425 10.33 3.33375 10.95 3.33375 15C3.33375 19.05 3.3425 19.67 3.42625 21.4963C3.47875 22.655 3.62625 23.35 3.875 23.9875C4.0875 24.5325 4.3125 24.8787 4.71625 25.2837C5.12125 25.6887 5.4675 25.9137 6.01125 26.125C6.64875 26.3725 7.345 26.5213 8.50375 26.5738C10.3313 26.6575 10.9513 26.6663 15 26.6663C19.05 26.6663 19.6688 26.6575 21.4963 26.5738C22.655 26.5213 23.35 26.3737 23.9888 26.125C24.5325 25.9125 24.8787 25.6875 25.2837 25.2837C25.6887 24.8787 25.9137 24.5325 26.125 23.9888C26.3725 23.3512 26.5213 22.655 26.5738 21.4963C26.6575 19.6688 26.6663 19.0487 26.6663 15C26.6663 10.9513 26.6575 10.3313 26.5738 8.50375C26.5213 7.345 26.3737 6.65 26.125 6.0125C25.9482 5.52135 25.6603 5.07772 25.2837 4.71625C24.9223 4.33964 24.4787 4.05172 23.9875 3.875C23.35 3.6275 22.6537 3.47875 21.495 3.42625C19.6687 3.3425 19.0487 3.33375 14.9987 3.33375H15ZM15 22.7775C12.9373 22.7775 10.959 21.9581 9.50048 20.4995C8.04191 19.041 7.2225 17.0627 7.2225 15C7.2225 12.9373 8.04191 10.959 9.50048 9.50048C10.959 8.04191 12.9373 7.2225 15 7.2225C17.0627 7.2225 19.041 8.04191 20.4995 9.50048C21.9581 10.959 22.7775 12.9373 22.7775 15C22.7775 17.0627 21.9581 19.041 20.4995 20.4995C19.041 21.9581 17.0627 22.7775 15 22.7775ZM15 19.445C16.1789 19.445 17.3095 18.9767 18.1431 18.1431C18.9767 17.3095 19.445 16.1789 19.445 15C19.445 13.8211 18.9767 12.6905 18.1431 11.8569C17.3095 11.0233 16.1789 10.555 15 10.555C13.8211 10.555 12.6905 11.0233 11.8569 11.8569C11.0233 12.6905 10.555 13.8211 10.555 15C10.555 16.1789 11.0233 17.3095 11.8569 18.1431C12.6905 18.9767 13.8211 19.445 15 19.445ZM22.7775 8.88875C22.3354 8.88875 21.9114 8.71313 21.5988 8.40053C21.2862 8.08793 21.1106 7.66396 21.1106 7.22188C21.1106 6.77979 21.2862 6.35582 21.5988 6.04322C21.9114 5.73062 22.3354 5.555 22.7775 5.555C23.2196 5.555 23.6436 5.73062 23.9562 6.04322C24.2688 6.35582 24.4444 6.77979 24.4444 7.22188C24.4444 7.66396 24.2688 8.08793 23.9562 8.40053C23.6436 8.71313 23.2196 8.88875 22.7775 8.88875Z" fill="black"/>
</svg>