<svg width="24" height="24" viewBox="0 0 24 24" fill="none" xmlns="http://www.w3.org/2000/svg">
    <path fill-rule="evenodd" clip-rule="evenodd" d="M23.4178 2.75206C23.5603 2.60971 23.6734 2.44068 23.7506 2.25462C23.8278 2.06856 23.8676 1.86911 23.8677 1.66767C23.8678 1.46623 23.8283 1.26674 23.7513 1.08058C23.6743 0.894428 23.5614 0.725257 23.4191 0.582729C23.2767 0.440201 23.1077 0.327107 22.9216 0.249905C22.7356 0.172702 22.5361 0.132903 22.3347 0.132779C22.1333 0.132655 21.9338 0.172209 21.7476 0.249183C21.5615 0.326157 21.3923 0.439043 21.2498 0.581395L11.9991 9.83206L2.75109 0.581395C2.46324 0.293547 2.07283 0.131836 1.66575 0.131836C1.25867 0.131836 0.868267 0.293547 0.580419 0.581395C0.292571 0.869244 0.130859 1.25965 0.130859 1.66673C0.130859 2.07381 0.292571 2.46421 0.580419 2.75206L9.83109 12.0001L0.580419 21.2481C0.437891 21.3906 0.324832 21.5598 0.247696 21.746C0.17056 21.9322 0.130859 22.1318 0.130859 22.3334C0.130859 22.535 0.17056 22.7346 0.247696 22.9208C0.324832 23.107 0.437891 23.2762 0.580419 23.4187C0.868267 23.7066 1.25867 23.8683 1.66575 23.8683C1.86732 23.8683 2.06691 23.8286 2.25313 23.7514C2.43935 23.6743 2.60856 23.5613 2.75109 23.4187L11.9991 14.1681L21.2498 23.4187C21.5376 23.7062 21.9279 23.8676 22.3347 23.8673C22.7415 23.8671 23.1316 23.7052 23.4191 23.4174C23.7066 23.1295 23.868 22.7393 23.8677 22.3325C23.8675 21.9256 23.7056 21.5356 23.4178 21.2481L14.1671 12.0001L23.4178 2.75206Z" fill="black"/>
</svg>