<svg width="30" height="30" viewBox="0 0 30 30" fill="none" xmlns="http://www.w3.org/2000/svg">
    <g clip-path="url(#clip0_888_88)">
        <path d="M15 30C23.2843 30 30 23.2843 30 15C30 6.71573 23.2843 0 15 0C6.71573 0 0 6.71573 0 15C0 23.2843 6.71573 30 15 30Z" fill="#258359"/>
        <path d="M11.168 21.7665L18.8809 29.4794C25.2689 27.776 30.0008 21.9558 30.0008 14.9999C30.0008 14.858 30.0008 14.716 30.0008 14.5741L23.944 8.99048L11.168 21.7665Z" fill="#258359"/>
        <path d="M15.3782 18.3595C16.0406 19.022 16.0406 20.1576 15.3782 20.8201L14.0059 22.1923C13.3435 22.8548 12.2078 22.8548 11.5454 22.1923L5.53591 16.1356C4.87345 15.4731 4.87345 14.3375 5.53591 13.675L6.90815 12.3028C7.57061 11.6403 8.70626 11.6403 9.36872 12.3028L15.3782 18.3595Z" fill="white"/>
        <path d="M20.6296 7.90212C21.2921 7.23966 22.4277 7.23966 23.0902 7.90212L24.4624 9.27436C25.1249 9.93682 25.1249 11.0725 24.4624 11.7349L14.0523 22.0977C13.3898 22.7602 12.2542 22.7602 11.5917 22.0977L10.2195 20.7255C9.55704 20.063 9.55704 18.9274 10.2195 18.2649L20.6296 7.90212Z" fill="white"/>
    </g>
    <defs>
        <clipPath id="clip0_888_88">
            <rect width="30" height="30" fill="white"/>
        </clipPath>
    </defs>
</svg>